<?xml version="1.0" encoding="utf-8"?>
<!-- Generator: Adobe Illustrator 20.0.0, SVG Export Plug-In . SVG Version: 6.00 Build 0)  -->
<svg version="1.1" id="Camada_1" xmlns="http://www.w3.org/2000/svg" xmlns:xlink="http://www.w3.org/1999/xlink" x="0px" y="0px"
	 viewBox="0 0 45 57.1" style="enable-background:new 0 0 45 57.1;" xml:space="preserve">
<style type="text/css">
	.st0{fill:#CC5500;stroke:#000000;stroke-width:0.75;}
	.st1{fill:none;stroke:#000000;stroke-width:0.75;}
	.st2{fill:#CC5500;stroke:#000000;}
	.st3{fill:none;stroke:#000000;}
</style>
<path id="rect1873" class="st0" d="M15.9,22.9h1.3c2.1,0,3.8,1.8,3.8,4.1v10.4c0,2.3-1.7,4.1-3.8,4.1h-1.3c-2.1,0-3.8-1.8-3.8-4.1
	V27C12.1,24.7,13.8,22.9,15.9,22.9z"/>
<path id="use1965" class="st0" d="M25.2,22.9h1.3c2.1,0,3.7,1.8,3.7,4.1v10.4c0,2.3-1.7,4.1-3.7,4.1h-1.3c-2.1,0-3.7-1.8-3.7-4.1V27
	C21.4,24.7,23.1,22.9,25.2,22.9z"/>
<path id="path1869" class="st1" d="M24.8,47.2c-0.4-5.5,5.1-7.5,7.7-7.5"/>
<path id="rect2777" class="st2" d="M34.5,0.5h0.8c2.1,0,3.9,1.8,3.9,4.1v30.1c0,2.3-1.7,4.1-3.9,4.1h-0.8c-2.1,0-3.9-1.8-3.9-4.1
	V4.6C30.6,2.3,32.4,0.5,34.5,0.5z"/>
<path id="rect1871" class="st2" d="M35.2,41.3H19c-2.1,0-3.8-2.1-3.8-4.2c0-2.1,1.7-4,3.8-4h18.7c2.1,0,4.2,1.7,4.2,3.9
	c0,2.1,0,3.8,0,9.4c0,5.6-4.4,10.2-9.4,10.2H11.8c-5,0-9-4.5-9-10.2l0-2.1l0-34c0-2.1,1.6-3.9,3.9-3.9h0.1c2.4,0,4.3,1.9,4.3,3.9
	v25.4c0,3.4,4,2.4,4,2.4"/>
<path id="path2775" class="st3" d="M28,49.8c-0.4-3.8,1.7-8.4,6.2-8.4"/>
</svg>
